<svg version="1.1" xmlns="http://www.w3.org/2000/svg" xmlns:xlink="http://www.w3.org/1999/xlink" width="26px" height="26px" viewBox="0,0,256,256"><g fill="#fff" fill-rule="nonzero" stroke="none" stroke-width="1" stroke-linecap="butt" stroke-linejoin="miter" stroke-miterlimit="10" stroke-dasharray="" stroke-dashoffset="0" font-family="none" font-weight="none" font-size="none" text-anchor="none" style="mix-blend-mode: normal"><g transform="scale(9.84615,9.84615)"><path d="M7.98438,1c-0.26172,0.00391 -0.50781,0.10938 -0.69141,0.29297l-4,4c-0.26172,0.25 -0.36719,0.625 -0.27344,0.97266c0.08984,0.35156 0.36328,0.625 0.71484,0.71484c0.34766,0.09375 0.72266,-0.01172 0.97266,-0.27344l2.29297,-2.29297v12.58594h2v-12.58594l2.29297,2.29297c0.25,0.26172 0.625,0.36719 0.97266,0.27344c0.35156,-0.08984 0.625,-0.36328 0.71484,-0.71484c0.09375,-0.34766 -0.01172,-0.72266 -0.27344,-0.97266l-4,-4c-0.19141,-0.19141 -0.45312,-0.29687 -0.72266,-0.29297zM17,1v2h2v-2zM17,5v2h2v-2zM17,9v12.58594l-2.29297,-2.29297c-0.1875,-0.19531 -0.44531,-0.30078 -0.71875,-0.30469c-0.40625,0.00391 -0.76953,0.25 -0.92578,0.625c-0.15234,0.37891 -0.0625,0.80859 0.23047,1.09375l4,4c0.39063,0.39063 1.02344,0.39063 1.41406,0l4,-4c0.26172,-0.25 0.36719,-0.625 0.27344,-0.97266c-0.08984,-0.35156 -0.36328,-0.625 -0.71484,-0.71484c-0.34766,-0.09375 -0.72266,0.01172 -0.97266,0.27344l-2.29297,2.29297v-12.58594zM7,19v2h2v-2zM7,23v2h2v-2z"></path></g></g></svg>